<svg width="2080" height="666" viewBox="0 0 2080 666" fill="none" xmlns="http://www.w3.org/2000/svg">
<mask id="path-1-outside-1_1843_6096" maskUnits="userSpaceOnUse" x="124.578" y="124.445" width="1955" height="541" fill="black">
<rect fill="white" x="124.578" y="124.445" width="1955" height="541"/>
<path d="M541.547 209.829C549.311 219.137 554.746 226.636 557.852 232.324C560.958 238.013 562.51 243.443 562.51 248.614C562.51 254.82 558.37 262.06 550.088 270.334C542.324 278.608 534.56 282.745 526.796 282.745C516.443 282.745 508.162 281.194 501.95 278.091C495.739 274.988 490.563 270.075 486.422 263.353C478.141 250.941 468.047 240.34 456.142 231.549C444.237 222.24 425.603 217.586 400.241 217.586C378.501 217.586 353.656 222.499 325.705 232.324C298.272 242.15 278.603 254.303 266.698 268.783C256.346 281.711 247.288 301.362 239.524 327.736C232.277 354.11 228.654 379.708 228.654 404.531C228.654 434.525 235.124 462.192 248.064 487.532C261.522 512.354 280.674 532.264 305.519 547.261C330.881 562.258 361.161 569.756 396.359 569.756C415.51 569.756 435.179 566.136 455.366 558.897C476.07 551.139 493.928 538.728 508.938 521.663H508.162C517.479 511.837 529.125 506.924 543.1 506.924C551.382 506.924 559.146 510.544 566.392 517.784C574.157 525.024 578.039 532.264 578.039 539.504C578.039 547.261 576.745 554.242 574.157 560.448C572.086 566.136 567.945 572.601 561.734 579.841C540.512 603.629 515.408 619.919 486.422 628.71C457.436 637.501 422.757 641.897 382.383 641.897C346.668 641.897 310.436 633.364 273.686 616.299C237.453 599.233 209.503 578.548 189.834 554.242C179.481 539.245 169.388 517.784 159.554 489.859C150.237 461.416 145.578 438.404 145.578 420.821C145.578 375.83 152.307 333.166 165.765 292.829C179.74 251.976 200.444 219.396 227.878 195.09C245.994 178.542 272.133 166.131 306.295 157.857C340.457 149.582 371.772 145.445 400.241 145.445C434.92 145.445 462.095 150.358 481.764 160.184C501.95 169.492 521.878 186.041 541.547 209.829Z"/>
<path d="M875.076 146.997C909.756 146.997 941.33 151.392 969.798 160.184C998.267 168.458 1021.56 180.869 1039.68 197.418C1072.28 226.894 1095.06 259.216 1108 294.381C1121.46 329.029 1128.19 373.503 1128.19 427.802C1128.19 439.179 1126.63 449.522 1123.53 458.83C1120.94 468.139 1116.54 480.033 1110.33 494.513C1102.56 510.544 1097.91 523.214 1096.35 532.523C1086 550.622 1068.92 567.946 1045.11 584.495C1021.82 601.043 996.455 614.489 969.022 624.832C941.589 635.174 917.52 640.346 896.816 640.346C796.918 640.346 725.747 606.215 683.303 537.953C671.398 518.818 662.081 498.909 655.352 478.223C649.141 457.538 646.035 437.369 646.035 417.718C646.035 364.97 655.352 319.203 673.986 280.418C693.137 241.116 719.535 210.605 753.18 188.885C773.366 176.991 794.33 167.165 816.069 159.408C838.326 151.134 857.995 146.997 875.076 146.997ZM726.782 420.045C726.782 447.971 732.993 470.983 745.416 489.083C758.356 507.183 778.025 526.834 804.423 548.037C826.162 556.311 840.914 561.741 848.678 564.326C856.442 566.395 865.242 567.429 875.076 567.429C927.355 567.429 969.022 553.208 1000.08 524.766C1031.13 496.323 1046.66 457.279 1046.66 407.634C1046.66 368.331 1042.26 337.303 1033.46 314.549C1024.66 291.795 1008.88 271.368 986.103 253.268C974.198 243.443 958.929 236.203 940.295 231.549C922.178 226.894 902.509 224.567 881.288 224.567C849.196 224.567 821.504 234.134 798.212 253.268C774.919 271.885 757.062 296.191 744.639 326.185C732.734 356.179 726.782 387.466 726.782 420.045Z"/>
<path d="M1616.24 567.429C1624.01 567.429 1630.22 570.791 1634.88 577.514C1640.05 584.236 1642.64 591.476 1642.64 599.233C1642.64 612.679 1637.47 623.022 1627.11 630.261C1617.28 636.984 1604.34 640.346 1588.29 640.346C1564.48 640.346 1545.33 636.209 1530.84 627.934C1516.35 619.66 1503.41 604.146 1492.02 581.392C1488.4 573.118 1484 559.672 1478.82 541.055C1474.16 522.438 1469.24 507.7 1464.07 496.84C1459.41 485.463 1451.39 475.896 1440 468.139C1429.13 460.382 1414.12 456.245 1394.97 455.728L1377.89 456.503C1360.29 457.538 1347.09 458.055 1338.29 458.055C1327.94 458.055 1318.1 457.279 1308.79 455.728C1309.82 523.99 1310.34 576.221 1310.34 612.42C1310.34 621.729 1305.68 629.486 1296.36 635.691C1287.56 641.897 1277.47 645 1266.08 645C1252.63 645 1242.01 639.829 1234.25 629.486C1228.04 617.074 1224.93 598.716 1224.93 574.411C1224.93 566.136 1225.45 554.242 1226.49 538.728L1227.26 504.597C1227.26 473.052 1228.56 439.179 1231.15 402.98C1233.22 361.609 1234.25 331.356 1234.25 312.222C1234.25 296.191 1232.7 274.73 1229.59 247.838C1229.07 242.667 1228.3 234.393 1227.26 223.016C1226.23 211.122 1225.71 200.52 1225.71 191.212C1225.71 184.489 1228.56 178.284 1234.25 172.595C1239.94 166.906 1245.64 163.287 1251.33 161.735C1293.78 155.012 1335.7 151.651 1377.11 151.651C1444.4 151.651 1499.52 164.321 1542.49 189.661C1585.45 215 1606.93 253.786 1606.93 306.016C1606.93 321.531 1602.79 337.82 1594.51 354.886C1586.74 371.434 1576.91 384.363 1565 393.671C1544.82 411.254 1523.08 422.631 1499.78 427.802C1500.82 428.837 1506.51 434.008 1516.86 443.316C1527.22 452.625 1534.2 462.45 1537.83 472.793L1547.92 503.821C1556.72 529.161 1563.71 546.744 1568.88 556.569C1574.06 565.878 1580.79 570.532 1589.07 570.532C1596.83 570.532 1601.49 570.015 1603.05 568.981C1605.12 567.946 1609.52 567.429 1616.24 567.429ZM1308.01 389.793C1323.54 390.827 1334.41 391.344 1340.62 391.344C1349.94 391.344 1362.88 390.827 1379.44 389.793L1415.93 389.017C1431.98 389.017 1448.54 385.397 1465.62 378.157C1482.7 370.917 1496.94 360.833 1508.32 347.905C1519.71 334.459 1525.4 319.462 1525.4 302.914C1525.4 273.437 1513.5 251.976 1489.69 238.53C1465.88 225.084 1428.87 218.362 1378.66 218.362C1359.51 218.362 1337 220.947 1311.12 226.119C1312.15 244.736 1312.67 258.181 1312.67 266.455C1312.67 276.281 1312.15 291.019 1311.12 310.671L1310.34 333.166C1308.79 354.886 1308.01 373.761 1308.01 389.793Z"/>
<path d="M2058.89 590.7C2059.41 601.56 2058.11 609.317 2055.01 613.972C2051.9 618.109 2045.69 622.504 2036.37 627.159C2022.4 633.881 2005.83 638.277 1986.68 640.346C1968.05 642.414 1943.98 643.448 1914.48 643.448H1861.68C1815.61 643.448 1781.45 635.691 1759.2 620.177C1736.94 604.146 1722.96 585.012 1717.27 562.775C1711.58 540.538 1708.21 511.837 1707.18 476.672C1706.66 464.778 1706.4 447.195 1706.4 423.924C1706.4 373.244 1710.8 305.499 1719.6 220.689C1722.19 195.866 1731.24 178.025 1746.77 167.165C1762.3 155.788 1779.9 150.1 1799.57 150.1C1815.61 150.1 1841.75 149.582 1877.99 148.548L1946.31 147.772C1974.26 147.772 1994.45 148.548 2006.87 150.1C2022.4 153.202 2034.04 156.822 2041.81 160.959C2049.57 164.579 2053.71 171.044 2054.23 180.352C2054.23 190.695 2050.87 200.779 2044.14 210.605C2037.41 220.43 2027.06 225.343 2013.08 225.343C1997.04 225.343 1974 224.309 1943.98 222.24C1913.96 220.172 1891.18 219.137 1875.66 219.137C1861.68 219.137 1849 219.913 1837.61 221.464C1823.12 222.499 1812.77 224.309 1806.56 226.894C1800.34 229.48 1796.98 233.876 1796.46 240.081C1790.77 296.449 1788.44 335.752 1789.48 357.989C1801.38 359.54 1813.29 360.316 1825.19 360.316C1837.1 360.316 1853.4 359.282 1874.1 357.213C1879.28 356.696 1885.75 356.179 1893.51 355.662C1901.28 355.144 1910.08 354.886 1919.91 354.886C1925.61 354.886 1934.66 355.403 1947.09 356.437L1971.16 357.213C1994.97 357.213 2006.87 365.746 2006.87 382.811C2006.87 393.154 2004.02 401.428 1998.33 407.634C1992.64 413.84 1982.54 418.494 1968.05 421.597C1948.38 425.217 1916.55 427.027 1872.55 427.027H1825.19C1815.36 427.027 1803.19 426.509 1788.7 425.475C1788.18 434.784 1787.92 448.229 1787.92 465.812C1787.92 488.566 1788.18 504.597 1788.7 513.906C1790.25 550.105 1815.36 568.205 1864.01 568.205C1880.57 568.205 1898.17 568.722 1916.81 569.756L1945.53 570.532C1958.99 570.532 1970.12 569.239 1978.92 566.654C1987.72 563.551 1996.26 560.965 2004.54 558.897C2013.34 556.311 2021.36 555.018 2028.61 555.018C2038.44 555.018 2045.95 558.897 2051.13 566.654C2056.3 573.894 2058.89 581.909 2058.89 590.7Z"/>
</mask>
<path d="M541.547 209.829C549.311 219.137 554.746 226.636 557.852 232.324C560.958 238.013 562.51 243.443 562.51 248.614C562.51 254.82 558.37 262.06 550.088 270.334C542.324 278.608 534.56 282.745 526.796 282.745C516.443 282.745 508.162 281.194 501.95 278.091C495.739 274.988 490.563 270.075 486.422 263.353C478.141 250.941 468.047 240.34 456.142 231.549C444.237 222.24 425.603 217.586 400.241 217.586C378.501 217.586 353.656 222.499 325.705 232.324C298.272 242.15 278.603 254.303 266.698 268.783C256.346 281.711 247.288 301.362 239.524 327.736C232.277 354.11 228.654 379.708 228.654 404.531C228.654 434.525 235.124 462.192 248.064 487.532C261.522 512.354 280.674 532.264 305.519 547.261C330.881 562.258 361.161 569.756 396.359 569.756C415.51 569.756 435.179 566.136 455.366 558.897C476.07 551.139 493.928 538.728 508.938 521.663H508.162C517.479 511.837 529.125 506.924 543.1 506.924C551.382 506.924 559.146 510.544 566.392 517.784C574.157 525.024 578.039 532.264 578.039 539.504C578.039 547.261 576.745 554.242 574.157 560.448C572.086 566.136 567.945 572.601 561.734 579.841C540.512 603.629 515.408 619.919 486.422 628.71C457.436 637.501 422.757 641.897 382.383 641.897C346.668 641.897 310.436 633.364 273.686 616.299C237.453 599.233 209.503 578.548 189.834 554.242C179.481 539.245 169.388 517.784 159.554 489.859C150.237 461.416 145.578 438.404 145.578 420.821C145.578 375.83 152.307 333.166 165.765 292.829C179.74 251.976 200.444 219.396 227.878 195.09C245.994 178.542 272.133 166.131 306.295 157.857C340.457 149.582 371.772 145.445 400.241 145.445C434.92 145.445 462.095 150.358 481.764 160.184C501.95 169.492 521.878 186.041 541.547 209.829Z" fill="white"/>
<path d="M875.076 146.997C909.756 146.997 941.33 151.392 969.798 160.184C998.267 168.458 1021.56 180.869 1039.68 197.418C1072.28 226.894 1095.06 259.216 1108 294.381C1121.46 329.029 1128.19 373.503 1128.19 427.802C1128.19 439.179 1126.63 449.522 1123.53 458.83C1120.94 468.139 1116.54 480.033 1110.33 494.513C1102.56 510.544 1097.91 523.214 1096.35 532.523C1086 550.622 1068.92 567.946 1045.11 584.495C1021.82 601.043 996.455 614.489 969.022 624.832C941.589 635.174 917.52 640.346 896.816 640.346C796.918 640.346 725.747 606.215 683.303 537.953C671.398 518.818 662.081 498.909 655.352 478.223C649.141 457.538 646.035 437.369 646.035 417.718C646.035 364.97 655.352 319.203 673.986 280.418C693.137 241.116 719.535 210.605 753.18 188.885C773.366 176.991 794.33 167.165 816.069 159.408C838.326 151.134 857.995 146.997 875.076 146.997ZM726.782 420.045C726.782 447.971 732.993 470.983 745.416 489.083C758.356 507.183 778.025 526.834 804.423 548.037C826.162 556.311 840.914 561.741 848.678 564.326C856.442 566.395 865.242 567.429 875.076 567.429C927.355 567.429 969.022 553.208 1000.08 524.766C1031.13 496.323 1046.66 457.279 1046.66 407.634C1046.66 368.331 1042.26 337.303 1033.46 314.549C1024.66 291.795 1008.88 271.368 986.103 253.268C974.198 243.443 958.929 236.203 940.295 231.549C922.178 226.894 902.509 224.567 881.288 224.567C849.196 224.567 821.504 234.134 798.212 253.268C774.919 271.885 757.062 296.191 744.639 326.185C732.734 356.179 726.782 387.466 726.782 420.045Z" fill="white"/>
<path d="M1616.24 567.429C1624.01 567.429 1630.22 570.791 1634.88 577.514C1640.05 584.236 1642.64 591.476 1642.64 599.233C1642.64 612.679 1637.47 623.022 1627.11 630.261C1617.28 636.984 1604.34 640.346 1588.29 640.346C1564.48 640.346 1545.33 636.209 1530.84 627.934C1516.35 619.66 1503.41 604.146 1492.02 581.392C1488.4 573.118 1484 559.672 1478.82 541.055C1474.16 522.438 1469.24 507.7 1464.07 496.84C1459.41 485.463 1451.39 475.896 1440 468.139C1429.13 460.382 1414.12 456.245 1394.97 455.728L1377.89 456.503C1360.29 457.538 1347.09 458.055 1338.29 458.055C1327.94 458.055 1318.1 457.279 1308.79 455.728C1309.82 523.99 1310.34 576.221 1310.34 612.42C1310.34 621.729 1305.68 629.486 1296.36 635.691C1287.56 641.897 1277.47 645 1266.08 645C1252.63 645 1242.01 639.829 1234.25 629.486C1228.04 617.074 1224.93 598.716 1224.93 574.411C1224.93 566.136 1225.45 554.242 1226.49 538.728L1227.26 504.597C1227.26 473.052 1228.56 439.179 1231.15 402.98C1233.22 361.609 1234.25 331.356 1234.25 312.222C1234.25 296.191 1232.7 274.73 1229.59 247.838C1229.07 242.667 1228.3 234.393 1227.26 223.016C1226.23 211.122 1225.71 200.52 1225.71 191.212C1225.71 184.489 1228.56 178.284 1234.25 172.595C1239.94 166.906 1245.64 163.287 1251.33 161.735C1293.78 155.012 1335.7 151.651 1377.11 151.651C1444.4 151.651 1499.52 164.321 1542.49 189.661C1585.45 215 1606.93 253.786 1606.93 306.016C1606.93 321.531 1602.79 337.82 1594.51 354.886C1586.74 371.434 1576.91 384.363 1565 393.671C1544.82 411.254 1523.08 422.631 1499.78 427.802C1500.82 428.837 1506.51 434.008 1516.86 443.316C1527.22 452.625 1534.2 462.45 1537.83 472.793L1547.92 503.821C1556.72 529.161 1563.71 546.744 1568.88 556.569C1574.06 565.878 1580.79 570.532 1589.07 570.532C1596.83 570.532 1601.49 570.015 1603.05 568.981C1605.12 567.946 1609.52 567.429 1616.24 567.429ZM1308.01 389.793C1323.54 390.827 1334.41 391.344 1340.62 391.344C1349.94 391.344 1362.88 390.827 1379.44 389.793L1415.93 389.017C1431.98 389.017 1448.54 385.397 1465.62 378.157C1482.7 370.917 1496.94 360.833 1508.32 347.905C1519.71 334.459 1525.4 319.462 1525.4 302.914C1525.4 273.437 1513.5 251.976 1489.69 238.53C1465.88 225.084 1428.87 218.362 1378.66 218.362C1359.51 218.362 1337 220.947 1311.12 226.119C1312.15 244.736 1312.67 258.181 1312.67 266.455C1312.67 276.281 1312.15 291.019 1311.12 310.671L1310.34 333.166C1308.79 354.886 1308.01 373.761 1308.01 389.793Z" fill="white"/>
<path d="M2058.89 590.7C2059.41 601.56 2058.11 609.317 2055.01 613.972C2051.9 618.109 2045.69 622.504 2036.37 627.159C2022.4 633.881 2005.83 638.277 1986.68 640.346C1968.05 642.414 1943.98 643.448 1914.48 643.448H1861.68C1815.61 643.448 1781.45 635.691 1759.2 620.177C1736.94 604.146 1722.96 585.012 1717.27 562.775C1711.58 540.538 1708.21 511.837 1707.18 476.672C1706.66 464.778 1706.4 447.195 1706.4 423.924C1706.4 373.244 1710.8 305.499 1719.6 220.689C1722.19 195.866 1731.24 178.025 1746.77 167.165C1762.3 155.788 1779.9 150.1 1799.57 150.1C1815.61 150.1 1841.75 149.582 1877.99 148.548L1946.31 147.772C1974.26 147.772 1994.45 148.548 2006.87 150.1C2022.4 153.202 2034.04 156.822 2041.81 160.959C2049.57 164.579 2053.71 171.044 2054.23 180.352C2054.23 190.695 2050.87 200.779 2044.14 210.605C2037.41 220.43 2027.06 225.343 2013.08 225.343C1997.04 225.343 1974 224.309 1943.98 222.24C1913.96 220.172 1891.18 219.137 1875.66 219.137C1861.68 219.137 1849 219.913 1837.61 221.464C1823.12 222.499 1812.77 224.309 1806.56 226.894C1800.34 229.48 1796.98 233.876 1796.46 240.081C1790.77 296.449 1788.44 335.752 1789.48 357.989C1801.38 359.54 1813.29 360.316 1825.19 360.316C1837.1 360.316 1853.4 359.282 1874.1 357.213C1879.28 356.696 1885.75 356.179 1893.51 355.662C1901.28 355.144 1910.08 354.886 1919.91 354.886C1925.61 354.886 1934.66 355.403 1947.09 356.437L1971.16 357.213C1994.97 357.213 2006.87 365.746 2006.87 382.811C2006.87 393.154 2004.02 401.428 1998.33 407.634C1992.64 413.84 1982.54 418.494 1968.05 421.597C1948.38 425.217 1916.55 427.027 1872.55 427.027H1825.19C1815.36 427.027 1803.19 426.509 1788.7 425.475C1788.18 434.784 1787.92 448.229 1787.92 465.812C1787.92 488.566 1788.18 504.597 1788.7 513.906C1790.25 550.105 1815.36 568.205 1864.01 568.205C1880.57 568.205 1898.17 568.722 1916.81 569.756L1945.53 570.532C1958.99 570.532 1970.12 569.239 1978.92 566.654C1987.72 563.551 1996.26 560.965 2004.54 558.897C2013.34 556.311 2021.36 555.018 2028.61 555.018C2038.44 555.018 2045.95 558.897 2051.13 566.654C2056.3 573.894 2058.89 581.909 2058.89 590.7Z" fill="white"/>
<path d="M541.547 209.829C549.311 219.137 554.746 226.636 557.852 232.324C560.958 238.013 562.51 243.443 562.51 248.614C562.51 254.82 558.37 262.06 550.088 270.334C542.324 278.608 534.56 282.745 526.796 282.745C516.443 282.745 508.162 281.194 501.95 278.091C495.739 274.988 490.563 270.075 486.422 263.353C478.141 250.941 468.047 240.34 456.142 231.549C444.237 222.24 425.603 217.586 400.241 217.586C378.501 217.586 353.656 222.499 325.705 232.324C298.272 242.15 278.603 254.303 266.698 268.783C256.346 281.711 247.288 301.362 239.524 327.736C232.277 354.11 228.654 379.708 228.654 404.531C228.654 434.525 235.124 462.192 248.064 487.532C261.522 512.354 280.674 532.264 305.519 547.261C330.881 562.258 361.161 569.756 396.359 569.756C415.51 569.756 435.179 566.136 455.366 558.897C476.07 551.139 493.928 538.728 508.938 521.663H508.162C517.479 511.837 529.125 506.924 543.1 506.924C551.382 506.924 559.146 510.544 566.392 517.784C574.157 525.024 578.039 532.264 578.039 539.504C578.039 547.261 576.745 554.242 574.157 560.448C572.086 566.136 567.945 572.601 561.734 579.841C540.512 603.629 515.408 619.919 486.422 628.71C457.436 637.501 422.757 641.897 382.383 641.897C346.668 641.897 310.436 633.364 273.686 616.299C237.453 599.233 209.503 578.548 189.834 554.242C179.481 539.245 169.388 517.784 159.554 489.859C150.237 461.416 145.578 438.404 145.578 420.821C145.578 375.83 152.307 333.166 165.765 292.829C179.74 251.976 200.444 219.396 227.878 195.09C245.994 178.542 272.133 166.131 306.295 157.857C340.457 149.582 371.772 145.445 400.241 145.445C434.92 145.445 462.095 150.358 481.764 160.184C501.95 169.492 521.878 186.041 541.547 209.829Z" stroke="white" stroke-width="40.8" mask="url(#path-1-outside-1_1843_6096)"/>
<path d="M541.547 209.829C549.311 219.137 554.746 226.636 557.852 232.324C560.958 238.013 562.51 243.443 562.51 248.614C562.51 254.82 558.37 262.06 550.088 270.334C542.324 278.608 534.56 282.745 526.796 282.745C516.443 282.745 508.162 281.194 501.95 278.091C495.739 274.988 490.563 270.075 486.422 263.353C478.141 250.941 468.047 240.34 456.142 231.549C444.237 222.24 425.603 217.586 400.241 217.586C378.501 217.586 353.656 222.499 325.705 232.324C298.272 242.15 278.603 254.303 266.698 268.783C256.346 281.711 247.288 301.362 239.524 327.736C232.277 354.11 228.654 379.708 228.654 404.531C228.654 434.525 235.124 462.192 248.064 487.532C261.522 512.354 280.674 532.264 305.519 547.261C330.881 562.258 361.161 569.756 396.359 569.756C415.51 569.756 435.179 566.136 455.366 558.897C476.07 551.139 493.928 538.728 508.938 521.663H508.162C517.479 511.837 529.125 506.924 543.1 506.924C551.382 506.924 559.146 510.544 566.392 517.784C574.157 525.024 578.039 532.264 578.039 539.504C578.039 547.261 576.745 554.242 574.157 560.448C572.086 566.136 567.945 572.601 561.734 579.841C540.512 603.629 515.408 619.919 486.422 628.71C457.436 637.501 422.757 641.897 382.383 641.897C346.668 641.897 310.436 633.364 273.686 616.299C237.453 599.233 209.503 578.548 189.834 554.242C179.481 539.245 169.388 517.784 159.554 489.859C150.237 461.416 145.578 438.404 145.578 420.821C145.578 375.83 152.307 333.166 165.765 292.829C179.74 251.976 200.444 219.396 227.878 195.09C245.994 178.542 272.133 166.131 306.295 157.857C340.457 149.582 371.772 145.445 400.241 145.445C434.92 145.445 462.095 150.358 481.764 160.184C501.95 169.492 521.878 186.041 541.547 209.829Z" stroke="#A5A5A5" stroke-opacity="0.4" stroke-width="40.8" mask="url(#path-1-outside-1_1843_6096)"/>
<path d="M875.076 146.997C909.756 146.997 941.33 151.392 969.798 160.184C998.267 168.458 1021.56 180.869 1039.68 197.418C1072.28 226.894 1095.06 259.216 1108 294.381C1121.46 329.029 1128.19 373.503 1128.19 427.802C1128.19 439.179 1126.63 449.522 1123.53 458.83C1120.94 468.139 1116.54 480.033 1110.33 494.513C1102.56 510.544 1097.91 523.214 1096.35 532.523C1086 550.622 1068.92 567.946 1045.11 584.495C1021.82 601.043 996.455 614.489 969.022 624.832C941.589 635.174 917.52 640.346 896.816 640.346C796.918 640.346 725.747 606.215 683.303 537.953C671.398 518.818 662.081 498.909 655.352 478.223C649.141 457.538 646.035 437.369 646.035 417.718C646.035 364.97 655.352 319.203 673.986 280.418C693.137 241.116 719.535 210.605 753.18 188.885C773.366 176.991 794.33 167.165 816.069 159.408C838.326 151.134 857.995 146.997 875.076 146.997ZM726.782 420.045C726.782 447.971 732.993 470.983 745.416 489.083C758.356 507.183 778.025 526.834 804.423 548.037C826.162 556.311 840.914 561.741 848.678 564.326C856.442 566.395 865.242 567.429 875.076 567.429C927.355 567.429 969.022 553.208 1000.08 524.766C1031.13 496.323 1046.66 457.279 1046.66 407.634C1046.66 368.331 1042.26 337.303 1033.46 314.549C1024.66 291.795 1008.88 271.368 986.103 253.268C974.198 243.443 958.929 236.203 940.295 231.549C922.178 226.894 902.509 224.567 881.288 224.567C849.196 224.567 821.504 234.134 798.212 253.268C774.919 271.885 757.062 296.191 744.639 326.185C732.734 356.179 726.782 387.466 726.782 420.045Z" stroke="white" stroke-width="40.8" mask="url(#path-1-outside-1_1843_6096)"/>
<path d="M875.076 146.997C909.756 146.997 941.33 151.392 969.798 160.184C998.267 168.458 1021.56 180.869 1039.68 197.418C1072.28 226.894 1095.06 259.216 1108 294.381C1121.46 329.029 1128.19 373.503 1128.19 427.802C1128.19 439.179 1126.63 449.522 1123.53 458.83C1120.94 468.139 1116.54 480.033 1110.33 494.513C1102.56 510.544 1097.91 523.214 1096.35 532.523C1086 550.622 1068.92 567.946 1045.11 584.495C1021.82 601.043 996.455 614.489 969.022 624.832C941.589 635.174 917.52 640.346 896.816 640.346C796.918 640.346 725.747 606.215 683.303 537.953C671.398 518.818 662.081 498.909 655.352 478.223C649.141 457.538 646.035 437.369 646.035 417.718C646.035 364.97 655.352 319.203 673.986 280.418C693.137 241.116 719.535 210.605 753.18 188.885C773.366 176.991 794.33 167.165 816.069 159.408C838.326 151.134 857.995 146.997 875.076 146.997ZM726.782 420.045C726.782 447.971 732.993 470.983 745.416 489.083C758.356 507.183 778.025 526.834 804.423 548.037C826.162 556.311 840.914 561.741 848.678 564.326C856.442 566.395 865.242 567.429 875.076 567.429C927.355 567.429 969.022 553.208 1000.08 524.766C1031.13 496.323 1046.66 457.279 1046.66 407.634C1046.66 368.331 1042.26 337.303 1033.46 314.549C1024.66 291.795 1008.88 271.368 986.103 253.268C974.198 243.443 958.929 236.203 940.295 231.549C922.178 226.894 902.509 224.567 881.288 224.567C849.196 224.567 821.504 234.134 798.212 253.268C774.919 271.885 757.062 296.191 744.639 326.185C732.734 356.179 726.782 387.466 726.782 420.045Z" stroke="#A5A5A5" stroke-opacity="0.4" stroke-width="40.8" mask="url(#path-1-outside-1_1843_6096)"/>
<path d="M1616.24 567.429C1624.01 567.429 1630.22 570.791 1634.88 577.514C1640.05 584.236 1642.64 591.476 1642.64 599.233C1642.64 612.679 1637.47 623.022 1627.11 630.261C1617.28 636.984 1604.34 640.346 1588.29 640.346C1564.48 640.346 1545.33 636.209 1530.84 627.934C1516.35 619.66 1503.41 604.146 1492.02 581.392C1488.4 573.118 1484 559.672 1478.82 541.055C1474.16 522.438 1469.24 507.7 1464.07 496.84C1459.41 485.463 1451.39 475.896 1440 468.139C1429.13 460.382 1414.12 456.245 1394.97 455.728L1377.89 456.503C1360.29 457.538 1347.09 458.055 1338.29 458.055C1327.94 458.055 1318.1 457.279 1308.79 455.728C1309.82 523.99 1310.34 576.221 1310.34 612.42C1310.34 621.729 1305.68 629.486 1296.36 635.691C1287.56 641.897 1277.47 645 1266.08 645C1252.63 645 1242.01 639.829 1234.25 629.486C1228.04 617.074 1224.93 598.716 1224.93 574.411C1224.93 566.136 1225.45 554.242 1226.49 538.728L1227.26 504.597C1227.26 473.052 1228.56 439.179 1231.15 402.98C1233.22 361.609 1234.25 331.356 1234.25 312.222C1234.25 296.191 1232.7 274.73 1229.59 247.838C1229.07 242.667 1228.3 234.393 1227.26 223.016C1226.23 211.122 1225.71 200.52 1225.71 191.212C1225.71 184.489 1228.56 178.284 1234.25 172.595C1239.94 166.906 1245.64 163.287 1251.33 161.735C1293.78 155.012 1335.7 151.651 1377.11 151.651C1444.4 151.651 1499.52 164.321 1542.49 189.661C1585.45 215 1606.93 253.786 1606.93 306.016C1606.93 321.531 1602.79 337.82 1594.51 354.886C1586.74 371.434 1576.91 384.363 1565 393.671C1544.82 411.254 1523.08 422.631 1499.78 427.802C1500.82 428.837 1506.51 434.008 1516.86 443.316C1527.22 452.625 1534.2 462.45 1537.83 472.793L1547.92 503.821C1556.72 529.161 1563.71 546.744 1568.88 556.569C1574.06 565.878 1580.79 570.532 1589.07 570.532C1596.83 570.532 1601.49 570.015 1603.05 568.981C1605.12 567.946 1609.52 567.429 1616.24 567.429ZM1308.01 389.793C1323.54 390.827 1334.41 391.344 1340.62 391.344C1349.94 391.344 1362.88 390.827 1379.44 389.793L1415.93 389.017C1431.98 389.017 1448.54 385.397 1465.62 378.157C1482.7 370.917 1496.94 360.833 1508.32 347.905C1519.71 334.459 1525.4 319.462 1525.4 302.914C1525.4 273.437 1513.5 251.976 1489.69 238.53C1465.88 225.084 1428.87 218.362 1378.66 218.362C1359.51 218.362 1337 220.947 1311.12 226.119C1312.15 244.736 1312.67 258.181 1312.67 266.455C1312.67 276.281 1312.15 291.019 1311.12 310.671L1310.34 333.166C1308.79 354.886 1308.01 373.761 1308.01 389.793Z" stroke="white" stroke-width="40.8" mask="url(#path-1-outside-1_1843_6096)"/>
<path d="M1616.24 567.429C1624.01 567.429 1630.22 570.791 1634.88 577.514C1640.05 584.236 1642.64 591.476 1642.64 599.233C1642.64 612.679 1637.47 623.022 1627.11 630.261C1617.28 636.984 1604.34 640.346 1588.29 640.346C1564.48 640.346 1545.33 636.209 1530.84 627.934C1516.35 619.66 1503.41 604.146 1492.02 581.392C1488.4 573.118 1484 559.672 1478.82 541.055C1474.16 522.438 1469.24 507.7 1464.07 496.84C1459.41 485.463 1451.39 475.896 1440 468.139C1429.13 460.382 1414.12 456.245 1394.97 455.728L1377.89 456.503C1360.29 457.538 1347.09 458.055 1338.29 458.055C1327.94 458.055 1318.1 457.279 1308.79 455.728C1309.82 523.99 1310.34 576.221 1310.34 612.42C1310.34 621.729 1305.68 629.486 1296.36 635.691C1287.56 641.897 1277.47 645 1266.08 645C1252.63 645 1242.01 639.829 1234.25 629.486C1228.04 617.074 1224.93 598.716 1224.93 574.411C1224.93 566.136 1225.45 554.242 1226.49 538.728L1227.26 504.597C1227.26 473.052 1228.56 439.179 1231.15 402.98C1233.22 361.609 1234.25 331.356 1234.25 312.222C1234.25 296.191 1232.7 274.73 1229.59 247.838C1229.07 242.667 1228.3 234.393 1227.26 223.016C1226.23 211.122 1225.71 200.52 1225.71 191.212C1225.71 184.489 1228.56 178.284 1234.25 172.595C1239.94 166.906 1245.64 163.287 1251.33 161.735C1293.78 155.012 1335.7 151.651 1377.11 151.651C1444.4 151.651 1499.52 164.321 1542.49 189.661C1585.45 215 1606.93 253.786 1606.93 306.016C1606.93 321.531 1602.79 337.82 1594.51 354.886C1586.74 371.434 1576.91 384.363 1565 393.671C1544.82 411.254 1523.08 422.631 1499.78 427.802C1500.82 428.837 1506.51 434.008 1516.86 443.316C1527.22 452.625 1534.2 462.45 1537.83 472.793L1547.92 503.821C1556.72 529.161 1563.71 546.744 1568.88 556.569C1574.06 565.878 1580.79 570.532 1589.07 570.532C1596.83 570.532 1601.49 570.015 1603.05 568.981C1605.12 567.946 1609.52 567.429 1616.24 567.429ZM1308.01 389.793C1323.54 390.827 1334.41 391.344 1340.62 391.344C1349.94 391.344 1362.88 390.827 1379.44 389.793L1415.93 389.017C1431.98 389.017 1448.54 385.397 1465.62 378.157C1482.7 370.917 1496.94 360.833 1508.32 347.905C1519.71 334.459 1525.4 319.462 1525.4 302.914C1525.4 273.437 1513.5 251.976 1489.69 238.53C1465.88 225.084 1428.87 218.362 1378.66 218.362C1359.51 218.362 1337 220.947 1311.12 226.119C1312.15 244.736 1312.67 258.181 1312.67 266.455C1312.67 276.281 1312.15 291.019 1311.12 310.671L1310.34 333.166C1308.79 354.886 1308.01 373.761 1308.01 389.793Z" stroke="#A5A5A5" stroke-opacity="0.4" stroke-width="40.8" mask="url(#path-1-outside-1_1843_6096)"/>
<path d="M2058.89 590.7C2059.41 601.56 2058.11 609.317 2055.01 613.972C2051.9 618.109 2045.69 622.504 2036.37 627.159C2022.4 633.881 2005.83 638.277 1986.68 640.346C1968.05 642.414 1943.98 643.448 1914.48 643.448H1861.68C1815.61 643.448 1781.45 635.691 1759.2 620.177C1736.94 604.146 1722.96 585.012 1717.27 562.775C1711.58 540.538 1708.21 511.837 1707.18 476.672C1706.66 464.778 1706.4 447.195 1706.4 423.924C1706.4 373.244 1710.8 305.499 1719.6 220.689C1722.19 195.866 1731.24 178.025 1746.77 167.165C1762.3 155.788 1779.9 150.1 1799.57 150.1C1815.61 150.1 1841.75 149.582 1877.99 148.548L1946.31 147.772C1974.26 147.772 1994.45 148.548 2006.87 150.1C2022.4 153.202 2034.04 156.822 2041.81 160.959C2049.57 164.579 2053.71 171.044 2054.23 180.352C2054.23 190.695 2050.87 200.779 2044.14 210.605C2037.41 220.43 2027.06 225.343 2013.08 225.343C1997.04 225.343 1974 224.309 1943.98 222.24C1913.96 220.172 1891.18 219.137 1875.66 219.137C1861.68 219.137 1849 219.913 1837.61 221.464C1823.12 222.499 1812.77 224.309 1806.56 226.894C1800.34 229.48 1796.98 233.876 1796.46 240.081C1790.77 296.449 1788.44 335.752 1789.48 357.989C1801.38 359.54 1813.29 360.316 1825.19 360.316C1837.1 360.316 1853.4 359.282 1874.1 357.213C1879.28 356.696 1885.75 356.179 1893.51 355.662C1901.28 355.144 1910.08 354.886 1919.91 354.886C1925.61 354.886 1934.66 355.403 1947.09 356.437L1971.16 357.213C1994.97 357.213 2006.87 365.746 2006.87 382.811C2006.87 393.154 2004.02 401.428 1998.33 407.634C1992.64 413.84 1982.54 418.494 1968.05 421.597C1948.38 425.217 1916.55 427.027 1872.55 427.027H1825.19C1815.36 427.027 1803.19 426.509 1788.7 425.475C1788.18 434.784 1787.92 448.229 1787.92 465.812C1787.92 488.566 1788.18 504.597 1788.7 513.906C1790.25 550.105 1815.36 568.205 1864.01 568.205C1880.57 568.205 1898.17 568.722 1916.81 569.756L1945.53 570.532C1958.99 570.532 1970.12 569.239 1978.92 566.654C1987.72 563.551 1996.26 560.965 2004.54 558.897C2013.34 556.311 2021.36 555.018 2028.61 555.018C2038.44 555.018 2045.95 558.897 2051.13 566.654C2056.3 573.894 2058.89 581.909 2058.89 590.7Z" stroke="white" stroke-width="40.8" mask="url(#path-1-outside-1_1843_6096)"/>
<path d="M2058.89 590.7C2059.41 601.56 2058.11 609.317 2055.01 613.972C2051.9 618.109 2045.69 622.504 2036.37 627.159C2022.4 633.881 2005.83 638.277 1986.68 640.346C1968.05 642.414 1943.98 643.448 1914.48 643.448H1861.68C1815.61 643.448 1781.45 635.691 1759.2 620.177C1736.94 604.146 1722.96 585.012 1717.27 562.775C1711.58 540.538 1708.21 511.837 1707.18 476.672C1706.66 464.778 1706.4 447.195 1706.4 423.924C1706.4 373.244 1710.8 305.499 1719.6 220.689C1722.19 195.866 1731.24 178.025 1746.77 167.165C1762.3 155.788 1779.9 150.1 1799.57 150.1C1815.61 150.1 1841.75 149.582 1877.99 148.548L1946.31 147.772C1974.26 147.772 1994.45 148.548 2006.87 150.1C2022.4 153.202 2034.04 156.822 2041.81 160.959C2049.57 164.579 2053.71 171.044 2054.23 180.352C2054.23 190.695 2050.87 200.779 2044.14 210.605C2037.41 220.43 2027.06 225.343 2013.08 225.343C1997.04 225.343 1974 224.309 1943.98 222.24C1913.96 220.172 1891.18 219.137 1875.66 219.137C1861.68 219.137 1849 219.913 1837.61 221.464C1823.12 222.499 1812.77 224.309 1806.56 226.894C1800.34 229.48 1796.98 233.876 1796.46 240.081C1790.77 296.449 1788.44 335.752 1789.48 357.989C1801.38 359.54 1813.29 360.316 1825.19 360.316C1837.1 360.316 1853.4 359.282 1874.1 357.213C1879.28 356.696 1885.75 356.179 1893.51 355.662C1901.28 355.144 1910.08 354.886 1919.91 354.886C1925.61 354.886 1934.66 355.403 1947.09 356.437L1971.16 357.213C1994.97 357.213 2006.87 365.746 2006.87 382.811C2006.87 393.154 2004.02 401.428 1998.33 407.634C1992.64 413.84 1982.54 418.494 1968.05 421.597C1948.38 425.217 1916.55 427.027 1872.55 427.027H1825.19C1815.36 427.027 1803.19 426.509 1788.7 425.475C1788.18 434.784 1787.92 448.229 1787.92 465.812C1787.92 488.566 1788.18 504.597 1788.7 513.906C1790.25 550.105 1815.36 568.205 1864.01 568.205C1880.57 568.205 1898.17 568.722 1916.81 569.756L1945.53 570.532C1958.99 570.532 1970.12 569.239 1978.92 566.654C1987.72 563.551 1996.26 560.965 2004.54 558.897C2013.34 556.311 2021.36 555.018 2028.61 555.018C2038.44 555.018 2045.95 558.897 2051.13 566.654C2056.3 573.894 2058.89 581.909 2058.89 590.7Z" stroke="#A5A5A5" stroke-opacity="0.4" stroke-width="40.8" mask="url(#path-1-outside-1_1843_6096)"/>
<circle cx="72.5" cy="72.5" r="72.5" fill="#4676FF"/>
</svg>
