<?xml version="1.0" encoding="UTF-8"?>
<svg id="_레이어_1" data-name="레이어 1" xmlns="http://www.w3.org/2000/svg" viewBox="0 0 739.81 118.6">
  <g>
    <path d="M45.03,7.16l12.1,34.03L69.84,7.16h32.05l13.33,34.03L126.62,7.16h45.1l-35.12,104.28h-34.03l-16.47-41.27-15.31,41.27H36.83L0,7.16H45.03Z"/>
    <path d="M217.03,7.16l12.1,34.03,12.71-34.03h32.05l13.33,34.03,11.41-34.03h45.1l-35.12,104.28h-34.03l-16.47-41.27-15.31,41.27h-33.96L172,7.16h45.03Z"/>
    <path d="M395.36,7.16V111.44h-46.13V7.16h46.13Z"/>
    <path d="M495.34,7.16V53.35h-23.23v58.08h-46.19V53.35h-23.23V7.16h92.66Z"/>
  </g>
  <path d="M736.68,118.6c-23.62,0-40.78-3.64-51.5-10.92-10.72,7.28-27.88,10.92-51.5,10.92l-3.12-20.29c10.71,0,19.14-.68,25.28-2.03,6.14-1.35,10.4-4.26,12.8-8.74h-16.39v-12.48h-23.25v-18.73h75.68v18.73h-23.09v5.31h18.26c.41,5.31,2.34,9.26,5.77,11.86,3.43,2.6,7.85,4.27,13.26,4.99,5.41,.73,12.38,1.09,20.91,1.09l-3.12,20.29Zm-80.05-68.82c-7.28,0-13.19-2.21-17.71-6.63-4.52-4.42-6.79-10.22-6.79-17.4s2.26-12.98,6.79-17.4c4.52-4.42,10.43-6.63,17.71-6.63h19.66c7.28,0,13.19,2.21,17.71,6.63,4.52,4.42,6.79,10.22,6.79,17.4s-2.26,12.98-6.79,17.4c-4.52,4.42-10.43,6.63-17.71,6.63h-19.66Zm6.24-27c-.83,0-1.54,.29-2.11,.86-.57,.57-.86,1.28-.86,2.11s.29,1.54,.86,2.11c.57,.57,1.27,.86,2.11,.86h7.18c.83,0,1.53-.29,2.11-.86,.57-.57,.86-1.27,.86-2.11s-.29-1.53-.86-2.11c-.57-.57-1.28-.86-2.11-.86h-7.18ZM738.71,0V80.36h-29.34V0h29.34Z"/>
  <path d="M596.88,48.22v23.21h-66.28v-23.21h66.28Z"/>
</svg>